<svg width="41" height="34" viewBox="0 0 41 34" fill="none" xmlns="http://www.w3.org/2000/svg">
<path d="M22.8824 6.11762C22.1002 6.03509 21.3056 5.98779 20.5 5.97603C16.98 5.99126 13.3311 6.82656 9.87715 8.42713C7.31266 9.66448 4.81457 11.4113 2.64508 13.5661C1.57959 14.666 0.219726 16.2587 0 17.9579C0.0259667 19.43 1.64523 21.2468 2.64508 22.3499C4.67947 24.42 7.11251 26.1168 9.87715 27.4888C9.97111 27.5333 10.0654 27.5773 10.1599 27.6207L7.59495 31.9905L11.0801 34L29.9202 2.00019L26.5655 0L22.8824 6.11762ZM30.8376 8.30017L28.2776 12.6286C29.4553 14.1212 30.1544 15.962 30.1544 17.9579C30.1544 22.933 25.8316 26.9664 20.4975 26.9664C20.2669 26.9664 20.0434 26.9421 19.8168 26.9273L18.1227 29.7885C18.904 29.8702 19.694 29.9296 20.5 29.9399C24.0234 29.9245 27.6702 29.0795 31.1204 27.4888C33.6848 26.2515 36.1854 24.5046 38.3549 22.3499C39.4204 21.25 40.7802 19.6573 41 17.9579C40.974 16.486 39.3548 14.6691 38.3549 13.566C36.3205 11.4959 33.885 9.79907 31.1204 8.42706C31.0271 8.38293 30.9315 8.34323 30.8376 8.30017ZM20.4975 8.94957C20.7314 8.94957 20.9635 8.95871 21.1932 8.97397L19.2088 12.3259C16.4237 12.8767 14.334 15.1884 14.334 17.9555C14.334 18.6507 14.4652 19.3161 14.7068 19.933V19.9354L12.7174 23.2971C11.5369 21.8031 10.8405 19.9563 10.8405 17.9579C10.8406 12.9829 15.1635 8.94954 20.4975 8.94957ZM26.2706 16.0171L21.7988 23.5754C24.5689 23.0142 26.6435 20.713 26.6435 17.9555C26.6435 17.2731 26.5039 16.6243 26.2706 16.0171Z" fill="#F5C249"/>
</svg>
